<svg id="Layer_1" data-name="Layer 1" xmlns="http://www.w3.org/2000/svg" viewBox="0 0 34.67 39.63">
  <title>calendar</title>
  <path d="M1,3.06H33.67a1,1,0,0,1,1,1v4a0,0,0,0,1,0,0H0a0,0,0,0,1,0,0v-4A1,1,0,0,1,1,3.06Z" style="fill: #555"/>
  <rect x="3.68" width="3.25" height="5" rx="1.62" ry="1.62" style="fill: #555"/>
  <rect x="27.73" width="3.25" height="5" rx="1.62" ry="1.62" style="fill: #555"/>
  <path d="M15.67,23.88H48.33a1,1,0,0,1,1,1V51.81a0,0,0,0,1,0,0H14.67a0,0,0,0,1,0,0V24.88A1,1,0,0,1,15.67,23.88Z" transform="translate(49.33 63.5) rotate(180)" style="fill: #555"/>
  <rect x="3.78" y="16.97" width="3.78" height="3.67" style="fill: #fff"/>
  <rect x="11.56" y="16.97" width="3.78" height="3.67" style="fill: #fff"/>
  <rect x="19.33" y="16.97" width="3.78" height="3.67" style="fill: #fff"/>
  <rect x="27.11" y="16.97" width="3.78" height="3.67" style="fill: #fff"/>
  <rect x="3.78" y="24.63" width="3.78" height="3.67" style="fill: #fff"/>
  <rect x="11.56" y="24.63" width="3.78" height="3.67" style="fill: #fff"/>
  <rect x="19.33" y="24.63" width="3.78" height="3.67" style="fill: #fff"/>
  <rect x="27.11" y="24.63" width="3.78" height="3.67" style="fill: #fff"/>
  <rect x="3.78" y="32.3" width="3.78" height="3.67" style="fill: #fff"/>
  <rect x="11.56" y="32.3" width="3.78" height="3.67" style="fill: #fff"/>
  <rect x="19.33" y="32.3" width="3.78" height="3.67" style="fill: #fff"/>
  <rect x="27.11" y="32.3" width="3.78" height="3.67" style="fill: #fff"/>
</svg>
