<svg xmlns="http://www.w3.org/2000/svg" viewBox="0 0 57.11 63.62">
  <title>edit</title>
  <g id="Layer_2" data-name="Layer 2">
    <polygon points="1.51 62.13 2.02 1.5 34.2 1.5 46.37 13.27 46.88 62.13 1.51 62.13" style="fill: #fff;stroke: #000;stroke-miterlimit: 10;stroke-width: 3px"/>
    <path d="M57.09,23.1h2.57a3,3,0,0,1,3,3v1.47a2,2,0,0,1-2,2H56.09a2,2,0,0,1-2-2V26.1a3,3,0,0,1,3-3Z" transform="translate(65.08 88.79) rotate(-126.29)" style="fill: #fff;stroke: #000;stroke-miterlimit: 10;stroke-width: 2px"/>
    <rect x="34.8" y="17.43" width="7.45" height="46.55" transform="translate(21.54 95.61) rotate(-125.92)" style="fill: #fff;stroke: #000;stroke-miterlimit: 10;stroke-width: 3px"/>
    <path d="M15.62,57.69l5.5.83a.5.5,0,0,0,.48-.79l-4.55-6.22a.5.5,0,0,0-.9.2L15.2,57.1A.51.51,0,0,0,15.62,57.69Z" transform="translate(-6.61 -0.19)" style="fill: #fff;stroke: #000;stroke-miterlimit: 10;stroke-width: 2px"/>
    <polyline points="32.86 2.94 32.86 14.59 33.39 14.59 44.91 14.59" style="fill: #fff;stroke: #000;stroke-miterlimit: 10;stroke-width: 3px"/>
  </g>
</svg>
