<svg xmlns="http://www.w3.org/2000/svg" viewBox="0 0 474.7 489.9"><defs><style>.cls-1,.cls-2{fill:none;stroke:#000;stroke-miterlimit:10;stroke-width:35px;}.cls-1{stroke-linecap:round;}</style></defs><title>logout</title><g id="Frame"><path class="cls-1" d="M371.3,23.72V153.53" transform="translate(-15.8 -3.1)"/><path class="cls-2" d="M371.3,432.89A3.21,3.21,0,0,1,368,436H45.63a3.2,3.2,0,0,1-3.29-3.11V23.72a3.21,3.21,0,0,1,3.29-3.12H368a3.21,3.21,0,0,1,3.29,3.12" transform="translate(-15.8 -3.1)"/><path class="cls-1" d="M371.3,303.07V432.89" transform="translate(-15.8 -3.1)"/><line class="cls-1" x1="293.54" y1="225.72" x2="456.92" y2="225.72"/><line class="cls-1" x1="406.21" y1="274.27" x2="457.2" y2="225.98"/><line class="cls-1" x1="406.21" y1="176.13" x2="457.2" y2="224.42"/></g><g id="Door"><path d="M234,492.5,37.3,453c-12-2.41-21.69-13-21.5-23.47L23.37,28.19c.2-10.5,10.19-17.11,22.21-14.69L242.24,53c12,2.41,21.69,13,21.49,23.47l-7.56,401.31C256,488.31,246,494.92,234,492.5Z" transform="translate(-15.8 -3.1)"/></g></svg>