<svg xmlns="http://www.w3.org/2000/svg" viewBox="0 0 573.68 277.37">
  <title>WSPLogo</title>
  <g id="Layer_3" data-name="Layer 3">
    <g>
      <rect y="0.01" width="59.75" height="62.06" style="fill: #c7c8ca"/>
      <rect x="88.77" y="0.01" width="59.75" height="62.06" style="fill: #c7c8ca"/>
      <path d="M72.63,428.86c26.37,0,40.75-11.23,45.62-14.48,5.19,4.37,20.12,14.48,50.25,14.48" transform="translate(0.02 -151.58)" style="fill: none"/>
      <path d="M515.25,151.61c-20.42,0-194.38,0-219.58,0-23.77,0-54.94,27.61-58.42,56.77V151.58H177.5v62.06h59.42s278.33,0,336.75,0C573.67,182,550,151.58,515.25,151.61Z" transform="translate(0.02 -151.58)" style="fill: #c7c8ca"/>
      <g>
        <path d="M337.33,259.17c-9.78.09-45.05-.09-100.5,0H177.5s0,97.42,0,99.58-3,11.09-14.5,11.09-14.5-8.78-14.5-11.09V259.17H88.75s0,97.27,0,99.58-3,11.09-14.5,11.09-14.5-8.93-14.5-11.09V259.17H0v99.58C0,404.94,46.14,429,72.51,429s40.17-10.86,45.63-14.48l.5-.36.51.36C124.6,418.09,138.4,429,164.77,429c21.1,0,54.83-15.37,67.48-45.16V429H337.33c11.27-.22,68.76-8.52,68.88-81.87C406.33,267.5,347.28,259.07,337.33,259.17Zm-9.58,110.66c-6.84.06-74-.05-91.4-.08a66.27,66.27,0,0,0,.92-11c0-35.76,0-75.82,0-92.1C242,308.91,287.11,325,328,325c9.75,0,20.6,6.92,20.6,22.08S337.33,369.75,327.75,369.83Z" transform="translate(0.02 -151.58)" style="fill: #c7c8ca"/>
        <path d="M406.33,259.14l-.12,169.61h59.87V325h49.17c33.75,0,58.42-34.84,58.42-65.83Z" transform="translate(0.02 -151.58)" style="fill: #c7c8ca"/>
      </g>
      <g>
        <path d="M7.52,254.66.62,219.59h6l4.32,24.1,5.26-24.1h6.92l5.05,24.51,4.43-24.51H38.4l-7,35.07H25.23l-5.74-26.23-5.7,26.23Z" transform="translate(0.02 -151.58)" style="fill: #003963"/>
        <path d="M64.12,254.66h-6.3l-2.51-7.94H43.79l-2.38,7.94H35.24l11.2-35.07h6.15ZM53.44,240.79l-4-13-3.89,13Z" transform="translate(0.02 -151.58)" style="fill: #003963"/>
        <path d="M64.72,243.23l5.67-.67q1,6.72,6.27,6.72a6,6,0,0,0,4.14-1.37,4.45,4.45,0,0,0,1.5-3.41,3.77,3.77,0,0,0-.52-2,3.93,3.93,0,0,0-1.61-1.37,43.18,43.18,0,0,0-5.21-1.8,17.66,17.66,0,0,1-5.43-2.44,9.27,9.27,0,0,1-2.74-3.46,10.53,10.53,0,0,1-1-4.6,10.35,10.35,0,0,1,1.3-5.16,8.5,8.5,0,0,1,3.61-3.47A12.4,12.4,0,0,1,76.35,219q5.07,0,7.92,2.75c1.89,1.84,2.9,4.46,3,7.87l-5.81.31A6.32,6.32,0,0,0,79.82,226a5.29,5.29,0,0,0-3.62-1.13,5.83,5.83,0,0,0-3.61,1,3,3,0,0,0-1.27,2.43,3.05,3.05,0,0,0,1.15,2.41q1.16,1,5.29,2.15a21.94,21.94,0,0,1,6.33,2.67,9.12,9.12,0,0,1,3,3.61,12.8,12.8,0,0,1,1,5.37,11,11,0,0,1-2.81,7.68c-1.87,2.08-4.8,3.11-8.79,3.11Q65.91,255.26,64.72,243.23Z" transform="translate(0.02 -151.58)" style="fill: #003963"/>
        <path d="M92,254.66V219.59h5.79v13.8h11.41v-13.8H115v35.07h-5.79V239.33H97.81v15.33Z" transform="translate(0.02 -151.58)" style="fill: #003963"/>
        <path d="M119.85,254.66V219.59h5.79v35.07Z" transform="translate(0.02 -151.58)" style="fill: #003963"/>
        <path d="M130.28,254.66V219.59h5.64L147.7,243V219.59h5.4v35.07h-5.83l-11.58-22.87v22.87Z" transform="translate(0.02 -151.58)" style="fill: #003963"/>
        <path d="M171.62,241.79v-5.93h12.52v14a15.43,15.43,0,0,1-5.36,3.83,16.5,16.5,0,0,1-7,1.6,13.61,13.61,0,0,1-7.51-2.09,14.17,14.17,0,0,1-5.15-6.27,26.3,26.3,0,0,1,0-19.73,14.5,14.5,0,0,1,5-6.15,13.07,13.07,0,0,1,7.36-2,12.32,12.32,0,0,1,8.24,2.62,12.45,12.45,0,0,1,4,7.69L178,230.62a7.45,7.45,0,0,0-2.37-4.14,6.21,6.21,0,0,0-4.11-1.44,7.29,7.29,0,0,0-6,2.89q-2.29,2.88-2.3,8.79,0,6.34,2.49,9.64a6.82,6.82,0,0,0,5.77,2.85,8.86,8.86,0,0,0,3.53-.8,10.9,10.9,0,0,0,3.26-2.18v-4.44Z" transform="translate(0.02 -151.58)" style="fill: #003963"/>
        <path d="M195,254.66V225.52h-8.54v-5.93h22.85v5.93h-8.52v29.14Z" transform="translate(0.02 -151.58)" style="fill: #003963"/>
        <path d="M210.22,237.34A24.81,24.81,0,0,1,212.08,227a13.88,13.88,0,0,1,4.84-6,12.78,12.78,0,0,1,7.25-2,12.43,12.43,0,0,1,10.06,4.71q3.9,4.73,3.89,13.43T234,250.88a13.28,13.28,0,0,1-19.67.05Q210.23,246,210.22,237.34Zm6-.24c0,4,.76,7.06,2.3,9.08a6.88,6.88,0,0,0,11.38,0c1.5-2,2.25-5.08,2.25-9.23s-.73-7.07-2.19-9a7.12,7.12,0,0,0-11.52,0Q216.21,230.93,216.21,237.1Z" transform="translate(0.02 -151.58)" style="fill: #003963"/>
        <path d="M241.76,254.66V219.59h5.65L259.18,243V219.59h5.41v35.07h-5.84l-11.58-22.87v22.87Z" transform="translate(0.02 -151.58)" style="fill: #003963"/>
        <path d="M285.3,243.23l5.67-.67q1,6.72,6.27,6.72a6,6,0,0,0,4.14-1.37,4.46,4.46,0,0,0,1.51-3.41,3.78,3.78,0,0,0-.53-2,4,4,0,0,0-1.6-1.37,44.3,44.3,0,0,0-5.22-1.8,17.66,17.66,0,0,1-5.43-2.44,9.27,9.27,0,0,1-2.74-3.46,10.53,10.53,0,0,1-1-4.6,10.26,10.26,0,0,1,1.31-5.16,8.54,8.54,0,0,1,3.6-3.47,12.4,12.4,0,0,1,5.67-1.17q5.07,0,7.92,2.75t3,7.87l-5.81.31A6.32,6.32,0,0,0,300.4,226a5.28,5.28,0,0,0-3.61-1.13,5.84,5.84,0,0,0-3.62,1,3,3,0,0,0-1.27,2.43,3.05,3.05,0,0,0,1.15,2.41c.77.65,2.54,1.37,5.29,2.15a21.94,21.94,0,0,1,6.33,2.67,9.12,9.12,0,0,1,3,3.61,12.79,12.79,0,0,1,1,5.37,11,11,0,0,1-2.81,7.68c-1.88,2.08-4.81,3.11-8.8,3.11Q286.5,255.26,285.3,243.23Z" transform="translate(0.02 -151.58)" style="fill: #003963"/>
        <path d="M319.06,254.66V225.52h-8.54v-5.93h22.85v5.93h-8.52v29.14Z" transform="translate(0.02 -151.58)" style="fill: #003963"/>
        <path d="M358.18,254.66h-6.29l-2.52-7.94H337.86l-2.38,7.94H329.3l11.21-35.07h6.14ZM347.5,240.79l-4-13-3.9,13Z" transform="translate(0.02 -151.58)" style="fill: #003963"/>
        <path d="M362.81,254.66V225.52h-8.54v-5.93h22.85v5.93H368.6v29.14Z" transform="translate(0.02 -151.58)" style="fill: #003963"/>
        <path d="M381.88,254.66V219.59h21.34v5.93H387.66v7.78h14.46v5.91H387.66v9.52h16.08v5.93Z" transform="translate(0.02 -151.58)" style="fill: #003963"/>
        <path d="M422.76,254.66V219.59h9.33a28.85,28.85,0,0,1,6.82.5,7.68,7.68,0,0,1,4.22,3.47,12.69,12.69,0,0,1,1.67,6.84,12.92,12.92,0,0,1-1.44,6.38,8.33,8.33,0,0,1-3.59,3.61c-1.43.7-3.9,1-7.41,1h-3.81v13.23Zm5.79-29.14v10h3.22a13.83,13.83,0,0,0,4.4-.46,3.89,3.89,0,0,0,1.9-1.64,6,6,0,0,0,0-5.86,3.79,3.79,0,0,0-1.9-1.61,17.36,17.36,0,0,0-4.77-.41Z" transform="translate(0.02 -151.58)" style="fill: #003963"/>
        <path d="M470.62,254.66h-6.3l-2.52-7.94H450.29l-2.38,7.94h-6.17l11.2-35.07h6.15Zm-10.69-13.87-4-13-3.89,13Z" transform="translate(0.02 -151.58)" style="fill: #003963"/>
        <path d="M475.24,254.66V225.52H466.7v-5.93h22.85v5.93H481v29.14Z" transform="translate(0.02 -151.58)" style="fill: #003963"/>
        <path d="M494.31,254.66V219.59h12.22q4.7,0,6.7.94a7.52,7.52,0,0,1,3.31,3.28,11.4,11.4,0,0,1,1.29,5.59,10.43,10.43,0,0,1-2,6.63,8.76,8.76,0,0,1-5.61,3.15,14.49,14.49,0,0,1,3.09,2.93,42.49,42.49,0,0,1,3.32,5.71l3.5,6.84h-6.93L509,247a50.92,50.92,0,0,0-3.08-5.18,4.59,4.59,0,0,0-1.73-1.43,7.7,7.7,0,0,0-2.92-.4H500.1v14.64Zm5.79-20.24h4.3a21.79,21.79,0,0,0,5-.34,3.27,3.27,0,0,0,1.75-1.4,5.25,5.25,0,0,0,.67-2.8,4.85,4.85,0,0,0-.67-2.69,3.42,3.42,0,0,0-1.82-1.4,22.55,22.55,0,0,0-4.72-.27H500.1Z" transform="translate(0.02 -151.58)" style="fill: #003963"/>
        <path d="M520.15,237.34A25,25,0,0,1,522,227a14,14,0,0,1,4.85-6,12.75,12.75,0,0,1,7.25-2,12.44,12.44,0,0,1,10.06,4.71q3.89,4.73,3.89,13.43t-4.12,13.75a13.27,13.27,0,0,1-19.66.05Q520.15,246,520.15,237.34Zm6-.24c0,4,.77,7.06,2.3,9.08a6.92,6.92,0,0,0,5.7,3,6.83,6.83,0,0,0,5.68-3c1.5-2,2.26-5.08,2.26-9.23s-.74-7.07-2.2-9a7.11,7.11,0,0,0-11.51,0Q526.13,230.93,526.13,237.1Z" transform="translate(0.02 -151.58)" style="fill: #003963"/>
        <path d="M552.76,254.66V219.88h5.79v28.85H573v5.93Z" transform="translate(0.02 -151.58)" style="fill: #003963"/>
      </g>
      <rect x="8.13" y="8.38" width="43.5" height="45.18" style="fill: #003963"/>
      <rect x="96.9" y="8.38" width="43.5" height="45.18" style="fill: #003963"/>
      <rect x="185.65" y="8.37" width="43.5" height="45.18" style="fill: #003963"/>
      <path d="M8.12,267.46h43.5v89.92s-1.13,20.73,22.51,20.73,22.75-20.73,22.75-20.73V267.46h43.5v89.92c0,12.31,7.06,20.73,24.38,20.73s20.89-13.76,20.87-20.73c0-12.37-.07-89.92-.07-89.92h43.57v89.92c0,30.06-32.8,63-64.37,63-36.24,0-46.13-17.94-46.13-17.94s-10.1,17.94-44.5,17.94c-33.41,0-66-32.94-66-63Z" transform="translate(0.02 -151.58)" style="fill: #003963"/>
      <path d="M245.38,205.12c0-11.8,24.9-45.14,50.3-45.14H515.26c22.76,0,45.87,22,45.87,45.14C507,205.14,245.38,205.12,245.38,205.12Z" transform="translate(0.02 -151.58)" style="fill: #003963"/>
      <path d="M245.38,267.46s37.63.12,82.63,0c44.16-.13,70.07,33.12,70.07,79.56,0,40.42-25.91,73.36-70.07,73.36H240.82V378.11s54.86-.12,87.06,0c20.73,0,28.87-16.13,28.87-31.05,0-15.25-8.14-29.91-28.74-29.91C284.63,317.11,250.68,299.61,245.38,267.46Z" transform="translate(0.02 -151.58)" style="fill: #003963"/>
      <path d="M414.47,267.46s132.95,0,146.66,0c0,22.64-23.12,49.05-45.87,49.05H458V420.38h-43.5Z" transform="translate(0.02 -151.58)" style="fill: #003963"/>
    </g>
  </g>
</svg>
